{"title":"Goreyan Nu Daffa Karo (2014) DVDRip - XviD - 1CD Esub [DDR-Exclu","uid":11469924,"size":731122047,"categoryP":"video","categoryS":"movies","magnet":"?xt=urn:btih:7292bbf8d5aededca6c04d6ffac85a415e1fb9e9&amp;dn=Goreyan+Nu+Daffa+Karo+%282014%29+DVDRip+-+XviD+-+1CD+Esub+%5BDDR-Exclu&amp;tr=udp%3A%2F%2Ftracker.openbittorrent.com%3A80&amp;tr=udp%3A%2F%2Fopen.demonii.com%3A1337&amp;tr=udp%3A%2F%2Ftracker.coppersurfer.tk%3A6969&amp;tr=udp%3A%2F%2Fexodus.desync.com%3A6969","seeders":3,"leechers":5,"uploader":"SaM","files":-1,"time":1416071575,"description":"Goreyan Nu Daffa Karo (2014) DVDRip - XviD - 1CD Esub [DDR-ExclusivE]\n &lt;a href=&quot;\nhttp://i.imgur.com/hELJNpw.jpg&quot; rel=&quot;nofollow&quot; target=&quot;_NEW&quot;&gt;\nhttp://i.imgur.com/hELJNpw.jpg&lt;/a&gt;\n\n---------------------------------------------------------------------------------------------------------------------------------------\nMovie Info\n---------------------------------------------------------------------------------------------------------------------------------------\n\nMovie Name : Goreyan Nu Daffa Karo\nStarring : Amrinder Gill, Amrit Maghera, Yograj Singh, Aman Khatkar, Binnu Dhillon , Rana Ranbir, Karamjit Anmol\nDirected : Pankaj Batra\nProducer : Suresh Kumar, Monty Shoor, Sukhjinder Bhachoo &amp; Aman Khatkar\nIMDB : http://www.imdb.com/title/tt3971944/\nMovie Release Date : 12 September 2014\nRipper : AnMoL\nSource : DVD9 My Own Collection\nAudio : Punjabi\nSubtitle : English\n\n---------------------------------------------------------------------------------------------------------------------------------------\nTech Info\n---------------------------------------------------------------------------------------------------------------------------------------\n\nFormat : AVI\nFormat/Info : Audio Video Interleave\nFile size : 697 MiB\nDuration : 2h 14mn\nOverall bit rate : 726 Kbps\n\nVideo\nID : 0\nFormat : MPEG-4 Visual\nFormat profile : Advanced Simple@L5\nFormat settings, BVOP : 3\nCodec ID/Hint : XviD\nDuration : 2h 14mn\nBit rate : 637 Kbps\nWidth : 640 pixels\nHeight : 288 pixels\nDisplay aspect ratio : 2.222\nFrame rate : 23.976 fps\nColor space : YUV\nChroma subsampling : 4:2:0\nBit depth : 8 bits\nScan type : Progressive\nCompression mode : Lossy\nBits/(Pixel*Frame) : 0.144\nStream size : 611 MiB (88%)\n\nAudio\nID : 1\nFormat : MPEG Audio\nFormat version : Version 1\nFormat profile : Layer 3\nMode : Joint stereo\nMode extension : MS Stereo\nCodec ID : 55\nCodec ID/Hint : MP3\nDuration : 2h 14mn\nBit rate mode : Constant\nBit rate : 80.0 Kbps\nChannel(s) : 2 channels\nSampling rate : 32.0 KHz\nCompression mode : Lossy\nStream size : 76.8 MiB (11%)\n\n---------------------------------------------------------------------------------------------------------------------------------------\nScreen Shot\n---------------------------------------------------------------------------------------------------------------------------------------\n &lt;a href=&quot;\nhttp://i.imgur.com/l6izuXS.png&quot; rel=&quot;nofollow&quot; target=&quot;_NEW&quot;&gt;\nhttp://i.imgur.com/l6izuXS.png&lt;/a&gt; &lt;a href=&quot;\nhttp://i.imgur.com/a8Klsyf.png&quot; rel=&quot;nofollow&quot; target=&quot;_NEW&quot;&gt;\nhttp://i.imgur.com/a8Klsyf.png&lt;/a&gt; &lt;a href=&quot;\nhttp://i.imgur.com/gBOMOy3.png&quot; rel=&quot;nofollow&quot; target=&quot;_NEW&quot;&gt;\nhttp://i.imgur.com/gBOMOy3.png&lt;/a&gt; &lt;a href=&quot;\nhttp://i.imgur.com/04o0N5t.png&quot; rel=&quot;nofollow&quot; target=&quot;_NEW&quot;&gt;\nhttp://i.imgur.com/04o0N5t.png&lt;/a&gt; &lt;a href=&quot;\nhttp://i.imgur.com/2zRTD4F.png&quot; rel=&quot;nofollow&quot; target=&quot;_NEW&quot;&gt;\nhttp://i.imgur.com/2zRTD4F.png&lt;/a&gt; &lt;a href=&quot;\nhttp://i.imgur.com/8gvsE9g.png&quot; rel=&quot;nofollow&quot; target=&quot;_NEW&quot;&gt;\nhttp://i.imgur.com/8gvsE9g.png&lt;/a&gt; &lt;a href=&quot;\nhttp://i.imgur.com/1E8IGHR.png&quot; rel=&quot;nofollow&quot; target=&quot;_NEW&quot;&gt;\nhttp://i.imgur.com/1E8IGHR.png&lt;/a&gt; &lt;a href=&quot;\nhttp://i.imgur.com/KfcPDVu.png&quot; rel=&quot;nofollow&quot; target=&quot;_NEW&quot;&gt;\nhttp://i.imgur.com/KfcPDVu.png&lt;/a&gt; &lt;a href=&quot;\nhttp://i.imgur.com/n9DdgHZ.png&quot; rel=&quot;nofollow&quot; target=&quot;_NEW&quot;&gt;\nhttp://i.imgur.com/n9DdgHZ.png&lt;/a&gt; &lt;a href=&quot;\nhttp://i.imgur.com/YaN6WXK.png&quot; rel=&quot;nofollow&quot; target=&quot;_NEW&quot;&gt;\nhttp://i.imgur.com/YaN6WXK.png&lt;/a&gt; &lt;a href=&quot;\nhttp://i.imgur.com/eC2ZeXh.png&quot; rel=&quot;nofollow&quot; target=&quot;_NEW&quot;&gt;\nhttp://i.imgur.com/eC2ZeXh.png&lt;/a&gt; &lt;a href=&quot;\nhttp://i.imgur.com/txO50Dv.png&quot; rel=&quot;nofollow&quot; target=&quot;_NEW&quot;&gt;\nhttp://i.imgur.com/txO50Dv.png&lt;/a&gt;","torrent":{"xt":"urn:btih:7292bbf8d5aededca6c04d6ffac85a415e1fb9e9","amp;dn":"Goreyan+Nu+Daffa+Karo+%282014%29+DVDRip+-+XviD+-+1CD+Esub+%5BDDR-Exclu","amp;tr":["udp%3A%2F%2Ftracker.openbittorrent.com%3A80","udp%3A%2F%2Fopen.demonii.com%3A1337","udp%3A%2F%2Ftracker.coppersurfer.tk%3A6969","udp%3A%2F%2Fexodus.desync.com%3A6969"],"infoHash":"7292bbf8d5aededca6c04d6ffac85a415e1fb9e9","infoHashBuffer":{"type":"Buffer","data":[114,146,187,248,213,174,222,220,166,192,77,111,250,200,90,65,94,31,185,233]},"announce":[],"urlList":[]}}